<?xml version="1.0" encoding="utf-8"?>
<!-- Generator: Adobe Illustrator 23.1.0, SVG Export Plug-In . SVG Version: 6.00 Build 0)  -->
<svg version="1.1" id="Layer_1" xmlns="http://www.w3.org/2000/svg" xmlns:xlink="http://www.w3.org/1999/xlink" x="0px" y="0px"
	 viewBox="0 0 512 512" style="enable-background:new 0 0 512 512;" xml:space="preserve">
<style type="text/css">
	.st0{fill:url(#SVGID_1_);}
	.st1{fill:url(#SVGID_2_);}
	.st2{fill:#FFFFFF;}
</style>
<g>
	<linearGradient id="SVGID_1_" gradientUnits="userSpaceOnUse" x1="3.5" y1="256" x2="508.5" y2="256">
		<stop  offset="0" style="stop-color:#D56D6E"/>
		<stop  offset="1" style="stop-color:#EFB76C"/>
	</linearGradient>
	<path class="st0" d="M256,37.49c58.39,0,113.26,22.7,154.53,63.97s63.97,96.14,63.97,154.53s-22.7,113.26-63.97,154.53
		S314.39,474.51,256,474.51s-113.26-22.7-154.53-63.97S37.49,314.39,37.49,256s22.7-113.26,63.97-154.53S197.61,37.49,256,37.49
		 M256,3.5C116.52,3.5,3.5,116.52,3.5,256S116.52,508.5,256,508.5S508.5,395.48,508.5,256S395.48,3.5,256,3.5z"/>
</g>
<linearGradient id="SVGID_2_" gradientUnits="userSpaceOnUse" x1="47" y1="256" x2="465" y2="256">
	<stop  offset="0" style="stop-color:#D56D6E"/>
	<stop  offset="1" style="stop-color:#EFB76C"/>
</linearGradient>
<path class="st1" d="M403.81,108.19C364.35,68.73,311.83,47,256,47s-108.35,21.73-147.81,61.19S47,200.17,47,256
	s21.73,108.35,61.19,147.81S200.17,465,256,465s108.35-21.72,147.81-61.19S465,311.83,465,256S443.28,147.65,403.81,108.19z"/>
<g>
	<path class="st2" d="M374.82,250.03c-13.9-0.74-25.81,8.19-29.91,20.42h-24.14l-17.62-52.99c-1.37-4.1-5.15-6.83-9.43-6.83h-0.19
		c-4.34,0.06-8.13,2.98-9.31,7.2l-27.61,96.37l-32.45-194.91c-0.74-4.65-4.72-8.13-9.43-8.32c-4.72-0.19-8.87,2.98-10.05,7.51
		l-32.89,151.97h-36.86c-5.46,0-9.93,4.47-9.93,9.93s4.47,9.93,9.93,9.93h44.68c4.53,0,8.56-3.1,9.62-7.51l23.21-113.06
		l31.83,191.06c0.74,4.59,4.59,8,9.25,8.25h0.56c4.41,0,8.32-2.92,9.56-7.2l30.84-107.72l9.74,29.35c1.37,4.03,5.15,6.83,9.43,6.83
		h31.71c4.28,11.17,15.14,19.24,27.86,19.24c16.75,0,30.28-13.84,29.79-30.72C402.5,263.43,390.15,250.83,374.82,250.03
		L374.82,250.03z"/>
</g>
</svg>
